<?xml version="1.0" encoding="iso-8859-1"?>
<svg version="1.1" xmlns="http://www.w3.org/2000/svg" x="0px" y="0px"
     width="1417.32px" height="1417.32px" viewBox="0 0 1417.32 1417.32" style="enable-background:new 0 0 1417.32 1417.32;"
     xml:space="preserve">
    <g id="Layer_1">
        <polyline style="opacity:0.4;fill:#fff;" points="23.955,1447.467 836.811,632.542 1448.782,1248.91 1448.782,1455.176
            23.955,1455.176     "/>
        <polygon style="opacity:0.4;fill:#fff;" points="-13.693,1051.432 1474.2,646.716 1474.2,1481.576 -31.29,1481.576
            -31.29,1053.393     "/>
        <polygon style="opacity:0.4;fill:#fff;" points="739.05,259.59 1458.56,977.139 1449.768,-20.001 1019.293,-20.001     "/>
        <polygon style="opacity:0.4;fill:#fff;" points="396.899,304.558 1450.74,582.194 1449.768,1455.176 1163.329,1456.156
            158.47,1178.523     "/>
        <polygon style="opacity:0.4;fill:#fff;" points="443.826,750.348 887.65,-12.185 -16.62,-11.208 -15.645,488.344     "/>
        <polygon style="opacity:0.4;fill:#fff;" points="58.653,-16.341 281.876,832.453 -17.6,912.613 -16.62,-11.208     "/>
        <polygon style="opacity:0.4;fill:#fff;" points="109.49,-12.185 999.096,504.691 1299.413,-12.185     "/>
    </g>
</svg>